<svg xmlns="http://www.w3.org/2000/svg" width="900" height="760" viewBox="0 0 900 760">
	<defs>
		<style>
			.box { fill: #f4f6f8; stroke: #20252b; stroke-width: 2; }
			.label { font-family: "IBM Plex Sans", "Source Sans 3", "Segoe UI", "Helvetica Neue", sans-serif; font-size: 14px; fill: #20252b; }
			.node { fill: #ffffff; stroke: #20252b; stroke-width: 1.5; }
			.link { stroke: #20252b; stroke-width: 1; opacity: 0.6; marker-end: url(#arrow); }
			.nodeLabel { font-family: "IBM Plex Sans", "Source Sans 3", "Segoe UI", "Helvetica Neue", sans-serif; font-size: 12px; fill: #20252b; text-anchor: middle; dominant-baseline: middle; }
		</style>
		<marker id="arrow" markerWidth="10" markerHeight="10" refX="8" refY="3" orient="auto">
			<path d="M0,0 L0,6 L9,3 z" fill="#20252b"/>
		</marker>
	</defs>

	<rect x="30" y="40" width="360" height="360" class="box"/>
	<text x="50" y="70" class="label">Compute Nodes</text>
	<text x="50" y="92" class="label">Inference workers (token loop)</text>
	<text x="50" y="114" class="label">GPU RAM: global features, prediction connections</text>

	<rect x="520" y="50" width="320" height="680" class="box"/>
	<text x="540" y="85" class="label">Storage Nodes</text>
	<text x="540" y="107" class="label">GPU RAM: Sparse Concept columns</text>
	<text x="540" y="129" class="label">Read connections</text>
	<text x="540" y="151" class="label">Parallel extraction</text>

	<line x1="590" y1="190" x2="240" y2="160" class="link"/>
	<line x1="590" y1="240" x2="240" y2="160" class="link"/>
	<line x1="590" y1="290" x2="240" y2="160" class="link"/>
	<line x1="590" y1="340" x2="240" y2="160" class="link"/>
	<line x1="590" y1="390" x2="240" y2="160" class="link"/>
	<line x1="590" y1="440" x2="240" y2="160" class="link"/>
	<line x1="590" y1="490" x2="240" y2="160" class="link"/>
	<line x1="590" y1="540" x2="240" y2="160" class="link"/>
	<line x1="590" y1="610" x2="240" y2="160" class="link"/>
	<line x1="590" y1="190" x2="240" y2="210" class="link"/>
	<line x1="590" y1="240" x2="240" y2="210" class="link"/>
	<line x1="590" y1="290" x2="240" y2="210" class="link"/>
	<line x1="590" y1="340" x2="240" y2="210" class="link"/>
	<line x1="590" y1="390" x2="240" y2="210" class="link"/>
	<line x1="590" y1="440" x2="240" y2="210" class="link"/>
	<line x1="590" y1="490" x2="240" y2="210" class="link"/>
	<line x1="590" y1="540" x2="240" y2="210" class="link"/>
	<line x1="590" y1="610" x2="240" y2="210" class="link"/>
	<line x1="590" y1="190" x2="240" y2="260" class="link"/>
	<line x1="590" y1="240" x2="240" y2="260" class="link"/>
	<line x1="590" y1="290" x2="240" y2="260" class="link"/>
	<line x1="590" y1="340" x2="240" y2="260" class="link"/>
	<line x1="590" y1="390" x2="240" y2="260" class="link"/>
	<line x1="590" y1="440" x2="240" y2="260" class="link"/>
	<line x1="590" y1="490" x2="240" y2="260" class="link"/>
	<line x1="590" y1="540" x2="240" y2="260" class="link"/>
	<line x1="590" y1="610" x2="240" y2="260" class="link"/>
	<line x1="590" y1="190" x2="240" y2="310" class="link"/>
	<line x1="590" y1="240" x2="240" y2="310" class="link"/>
	<line x1="590" y1="290" x2="240" y2="310" class="link"/>
	<line x1="590" y1="340" x2="240" y2="310" class="link"/>
	<line x1="590" y1="390" x2="240" y2="310" class="link"/>
	<line x1="590" y1="440" x2="240" y2="310" class="link"/>
	<line x1="590" y1="490" x2="240" y2="310" class="link"/>
	<line x1="590" y1="540" x2="240" y2="310" class="link"/>
	<line x1="590" y1="610" x2="240" y2="310" class="link"/>
	<line x1="590" y1="190" x2="240" y2="380" class="link"/>
	<line x1="590" y1="240" x2="240" y2="380" class="link"/>
	<line x1="590" y1="290" x2="240" y2="380" class="link"/>
	<line x1="590" y1="340" x2="240" y2="380" class="link"/>
	<line x1="590" y1="390" x2="240" y2="380" class="link"/>
	<line x1="590" y1="440" x2="240" y2="380" class="link"/>
	<line x1="590" y1="490" x2="240" y2="380" class="link"/>
	<line x1="590" y1="540" x2="240" y2="380" class="link"/>
	<line x1="590" y1="610" x2="240" y2="380" class="link"/>

	<ellipse cx="150" cy="160" rx="90" ry="16" class="node"/>
	<text x="150" y="160" class="nodeLabel">Compute node 1</text>
	<ellipse cx="150" cy="210" rx="90" ry="16" class="node"/>
	<text x="150" y="210" class="nodeLabel">Compute node 2</text>
	<ellipse cx="150" cy="260" rx="90" ry="16" class="node"/>
	<text x="150" y="260" class="nodeLabel">Compute node 3</text>
	<ellipse cx="150" cy="310" rx="90" ry="16" class="node"/>
	<text x="150" y="310" class="nodeLabel">Compute node 4</text>
	<ellipse cx="150" cy="380" rx="90" ry="16" class="node"/>
	<text x="150" y="380" class="nodeLabel">Compute node B</text>

	<ellipse cx="680" cy="190" rx="90" ry="16" class="node"/>
	<text x="680" y="190" class="nodeLabel">Storage node 1</text>
	<ellipse cx="680" cy="240" rx="90" ry="16" class="node"/>
	<text x="680" y="240" class="nodeLabel">Storage node 2</text>
	<ellipse cx="680" cy="290" rx="90" ry="16" class="node"/>
	<text x="680" y="290" class="nodeLabel">Storage node 3</text>
	<ellipse cx="680" cy="340" rx="90" ry="16" class="node"/>
	<text x="680" y="340" class="nodeLabel">Storage node 4</text>
	<ellipse cx="680" cy="390" rx="90" ry="16" class="node"/>
	<text x="680" y="390" class="nodeLabel">Storage node 5</text>
	<ellipse cx="680" cy="440" rx="90" ry="16" class="node"/>
	<text x="680" y="440" class="nodeLabel">Storage node 6</text>
	<ellipse cx="680" cy="490" rx="90" ry="16" class="node"/>
	<text x="680" y="490" class="nodeLabel">Storage node 7</text>
	<ellipse cx="680" cy="540" rx="90" ry="16" class="node"/>
	<text x="680" y="540" class="nodeLabel">Storage node 8</text>
	<ellipse cx="680" cy="610" rx="90" ry="16" class="node"/>
	<text x="680" y="610" class="nodeLabel">Storage node N</text>
</svg>
